{"title":"Paulina Rubio Ft. Espinoza Paz - Me Voy (h264/mp4)","uid":7124529,"size":45276364,"categoryP":"video","categoryS":"music_videos","magnet":"?xt=urn:btih:a53772dbe076cc393424a2b6719f2df85cbb55f7&amp;dn=Paulina+Rubio+Ft.+Espinoza+Paz+-+Me+Voy+%28h264%2Fmp4%29&amp;tr=udp%3A%2F%2Ftracker.openbittorrent.com%3A80&amp;tr=udp%3A%2F%2Fopen.demonii.com%3A1337&amp;tr=udp%3A%2F%2Ftracker.coppersurfer.tk%3A6969&amp;tr=udp%3A%2F%2Fexodus.desync.com%3A6969","seeders":1,"leechers":0,"uploader":"MusicVideos-HQ","files":1,"time":1332482042,"description":"General\n\nFormat                           : MPEG-4\nFormat profile                   : Base Media\nCodec ID                         : isom\nFile size                        : 43.2 MiB\nDuration                         : 3mn 0s\nOverall bit rate                 : 2 010 Kbps\nEncoded date                     : UTC 2012-03-22 04:20:30\nTagged date                      : UTC 2012-03-22 04:20:30\n\nVideo\nID                               : 1\nFormat                           : AVC\nFormat/Info                      : Advanced Video Codec\nFormat profile                   : &lt;a class=&quot;__cf_email__&quot; href=&quot;/cdn-cgi/l/email-protection&quot; data-cfemail=&quot;2169484649616d120f11&quot;&gt;[email&amp;#160;protected]&lt;/a&gt;&lt;script cf-hash='f9e31' type=&quot;text/javascript&quot;&gt;\n/* &lt;![CDATA[ */!function(){try{var t=&quot;currentScript&quot;in document?document.currentScript:function(){for(var t=document.getElementsByTagName(&quot;script&quot;),e=t.length;e--;)if(t[e].getAttribute(&quot;cf-hash&quot;))return t[e]}();if(t&amp;&amp;t.previousSibling){var e,r,n,i,c=t.previousSibling,a=c.getAttribute(&quot;data-cfemail&quot;);if(a){for(e=&quot;&quot;,r=parseInt(a.substr(0,2),16),n=2;a.length-n;n+=2)i=parseInt(a.substr(n,2),16)^r,e+=String.fromCharCode(i);e=document.createTextNode(e),c.parentNode.replaceChild(e,c)}}}catch(u){}}();/* ]]&gt; */&lt;/script&gt;\nFormat settings, CABAC           : Yes\nFormat settings, ReFrames        : 2 frames\nCodec ID                         : avc1\nCodec ID/Info                    : Advanced Video Coding\nDuration                         : 3mn 0s\nBit rate mode                    : Variable\nBit rate                         : 1 969 Kbps\nMaximum bit rate                 : 4 065 Kbps\nWidth                            : 720 pixels\nHeight                           : 480 pixels\nDisplay aspect ratio             : 16:9\nOriginal display aspect ratio    : 16:9\nFrame rate mode                  : Constant\nFrame rate                       : 23.976 fps\nStandard                         : NTSC\nColor space                      : YUV\nChroma subsampling               : 4:2:0\nBit depth                        : 8 bits\nScan type                        : Progressive\nBits/(Pixel*Frame)               : 0.238\nStream size                      : 41.7 MiB (97%)\n\n\nAudio\nID                               : 2\nFormat                           : AAC\nFormat/Info                      : Advanced Audio Codec\nFormat profile                   : LC\nCodec ID                         : 40\nDuration                         : 3mn 0s\nBit rate mode                    : Variable\nBit rate                         : 62.3 Kbps\nMaximum bit rate                 : 73.8 Kbps\nChannel(s)                       : 2 channels\nChannel positions                : Front: L R\nSampling rate                    : 44.1 KHz\nCompression mode                 : Lossy\nStream size                      : 1.34 MiB (3%)\n\n\n","torrent":{"xt":"urn:btih:a53772dbe076cc393424a2b6719f2df85cbb55f7","amp;dn":"Paulina+Rubio+Ft.+Espinoza+Paz+-+Me+Voy+%28h264%2Fmp4%29","amp;tr":["udp%3A%2F%2Ftracker.openbittorrent.com%3A80","udp%3A%2F%2Fopen.demonii.com%3A1337","udp%3A%2F%2Ftracker.coppersurfer.tk%3A6969","udp%3A%2F%2Fexodus.desync.com%3A6969"],"infoHash":"a53772dbe076cc393424a2b6719f2df85cbb55f7","infoHashBuffer":{"type":"Buffer","data":[165,55,114,219,224,118,204,57,52,36,162,182,113,159,45,248,92,187,85,247]},"announce":[],"urlList":[]}}